<?xml version="1.0" encoding="UTF-8" standalone="no"?>
<!-- Created with Inkscape (http://www.inkscape.org/) -->

<svg
   width="4.0057998mm"
   height="5.6465797mm"
   viewBox="0 0 4.0057998 5.6465797"
   version="1.1"
   id="svg1"
   xml:space="preserve"
   inkscape:version="1.3.2 (091e20e, 2023-11-25, custom)"
   sodipodi:docname="user.svg"
   xmlns:inkscape="http://www.inkscape.org/namespaces/inkscape"
   xmlns:sodipodi="http://sodipodi.sourceforge.net/DTD/sodipodi-0.dtd"
   xmlns="http://www.w3.org/2000/svg"
   xmlns:svg="http://www.w3.org/2000/svg"><sodipodi:namedview
     id="namedview1"
     pagecolor="#ffffff"
     bordercolor="#000000"
     borderopacity="0.25"
     inkscape:showpageshadow="2"
     inkscape:pageopacity="0.0"
     inkscape:pagecheckerboard="0"
     inkscape:deskcolor="#d1d1d1"
     inkscape:document-units="mm"
     inkscape:zoom="14.510213"
     inkscape:cx="7.3741163"
     inkscape:cy="13.817853"
     inkscape:window-width="1366"
     inkscape:window-height="705"
     inkscape:window-x="-8"
     inkscape:window-y="-8"
     inkscape:window-maximized="1"
     inkscape:current-layer="g1" /><defs
     id="defs1" /><g
     inkscape:label="Layer 1"
     inkscape:groupmode="layer"
     id="layer1"
     transform="translate(-102.30095,-145.67671)"><g
       style="fill:none"
       id="g1"
       transform="matrix(0.26458333,0,0,0.26458333,101.87895,145.34598)"><path
         d="m 9.16006,10.87 c -0.1,-0.01 -0.22,-0.01 -0.33,0 -2.38,-0.08 -4.27,-2.03 -4.27,-4.43 0,-2.45 1.98,-4.44 4.44,-4.44 2.45004,0 4.44004,1.99 4.44004,4.44 -0.01,2.4 -1.9,4.35 -4.28004,4.43 z"
         stroke="#247cff"
         stroke-width="1.5"
         stroke-linecap="round"
         stroke-linejoin="round"
         id="path1" /><path
         d="m 4.15997,14.56 c -2.42,1.62 -2.42,4.26 0,5.87 2.75,1.84 7.26003,1.84 10.01003,0 2.42,-1.62 2.42,-4.26 0,-5.87 -2.74,-1.83 -7.25003,-1.83 -10.01003,0 z"
         stroke="#247cff"
         stroke-width="1.5"
         stroke-linecap="round"
         stroke-linejoin="round"
         id="path3" /></g></g></svg>
